<svg width="19" height="19" viewBox="0 0 19 19" fill="none" xmlns="http://www.w3.org/2000/svg">
    <path d="M3.60002 0.617577H1.20002C0.758196 0.617577 0.400024 0.975753 0.400024 1.41758V1.81758C0.400024 2.2594 0.758196 2.61758 1.20002 2.61758H2.80954L4.98903 11.8025C5.34616 13.3076 6.67254 14.3782 8.21179 14.4165V14.4176H14.4699C16.029 14.4176 17.3611 13.2941 17.6241 11.7573L18.6286 5.88745C18.7958 4.91014 18.043 4.01758 17.0515 4.01758H5.19728L4.57301 1.3867C4.46603 0.935873 4.06337 0.617577 3.60002 0.617577Z" fill="white"/>
    <path d="M8.40001 16.8176C8.40001 17.7013 7.68367 18.4176 6.80001 18.4176C5.91636 18.4176 5.20001 17.7013 5.20001 16.8176C5.20001 15.9339 5.91636 15.2176 6.80001 15.2176C7.68367 15.2176 8.40001 15.9339 8.40001 16.8176Z" fill="white"/>
    <path d="M17.2 16.8176C17.2 17.7013 16.4837 18.4176 15.6 18.4176C14.7163 18.4176 14 17.7013 14 16.8176C14 15.9339 14.7163 15.2176 15.6 15.2176C16.4837 15.2176 17.2 15.9339 17.2 16.8176Z" fill="white"/>
</svg>