<svg viewBox="0 0 18 18" fill="none" xmlns="http://www.w3.org/2000/svg">
    <path fill-rule="evenodd" clip-rule="evenodd" d="M16.5 9.70065C16.5 9.717 16.5 9.7335 16.5 9.75V11.25C16.5 11.2665 16.5 11.283 16.5 11.2994C16.5 11.9642 16.5001 12.5371 16.4384 12.9959C16.3723 13.4875 16.2233 13.9588 15.841 14.341C15.4588 14.7233 14.9875 14.8723 14.4959 14.9384C14.0371 15.0001 13.4642 15.0001 12.7994 15H8.20066C7.53578 15.0001 6.9629 15.0001 6.50416 14.9384C6.01253 14.8723 5.54126 14.7233 5.15901 14.341C4.77677 13.9588 4.62771 13.4875 4.56161 12.9959C4.49993 12.5371 4.49996 11.9642 4.5 11.2994V9.70065C4.49996 9.03578 4.49993 8.46293 4.56161 8.00415C4.62771 7.51253 4.77677 7.04126 5.15901 6.65901C5.54126 6.27677 6.01253 6.12771 6.50416 6.06161C6.9629 5.99993 7.53578 5.99996 8.20066 6H12.75C12.7665 6 12.783 6 12.7994 6C13.4642 5.99996 14.0371 5.99993 14.4959 6.06161C14.9875 6.12771 15.4588 6.27677 15.841 6.65901C16.2233 7.04126 16.3723 7.51253 16.4384 8.00415C16.5001 8.46293 16.5 9.03578 16.5 9.70065ZM8.25001 10.5C8.25001 9.25733 9.25741 8.25 10.5 8.25C11.7427 8.25 12.75 9.25733 12.75 10.5C12.75 11.7427 11.7427 12.75 10.5 12.75C9.25741 12.75 8.25001 11.7427 8.25001 10.5Z" fill="#000000"/>
    <path d="M13.4974 5.2529C13.2827 5.24993 13.0621 5.24995 12.8392 5.24998H8.16098C7.5282 5.24991 6.91325 5.24984 6.4043 5.31827C5.82998 5.39549 5.17381 5.5836 4.62875 6.12866C4.0837 6.67371 3.89558 7.32989 3.81837 7.90422C3.74994 8.41317 3.75 9.02809 3.75007 9.66094V11.339C3.75005 11.5588 3.75002 11.7765 3.75287 11.9883C3.7043 11.9859 3.65734 11.983 3.61202 11.9795C3.33211 11.9579 3.05313 11.9103 2.78212 11.7811C2.31623 11.5591 1.94083 11.1837 1.71883 10.7178C1.58968 10.4468 1.54206 10.1679 1.52046 9.88797C1.49999 9.62255 1.49999 9.3008 1.50001 8.9279L1.5 6.70058C1.49996 6.03573 1.49993 5.46286 1.56161 5.00411C1.62771 4.51248 1.77677 4.04122 2.15902 3.65896C2.54126 3.27672 3.01253 3.12766 3.50416 3.06157C3.9629 2.99989 4.53577 2.99992 5.20064 2.99995L10.9043 2.99992C11.2206 2.99964 11.4932 2.9994 11.7356 3.05299C12.5904 3.24193 13.2581 3.90954 13.447 4.76434C13.4802 4.91455 13.4927 5.07632 13.4974 5.2529Z" fill="#000000"/>
</svg>