<svg width="32" height="32" viewBox="0 0 16 17" fill="none" xmlns="http://www.w3.org/2000/svg">
    <path fill-rule="evenodd" clip-rule="evenodd" d="M5.96198 1.12725C5.33331 1.62884 5.33331 2.54636 5.33331 4.38141V13.2192C5.33331 15.0542 5.33331 15.9717 5.96198 16.4733C6.59065 16.9749 7.55154 16.8241 9.4734 16.5224L11.5434 16.1975C13.6719 15.8633 14.7361 15.6963 15.3681 14.9937C16 14.2911 16 13.2749 16 11.2426V6.35798C16 4.32566 16 3.30951 15.3681 2.6069C14.7361 1.90428 13.6719 1.73723 11.5434 1.40312L9.4734 1.07818C7.55154 0.776497 6.59065 0.625657 5.96198 1.12725ZM7.99998 7.33518C8.36816 7.33518 8.66665 7.6163 8.66665 7.9631V9.6375C8.66665 9.9843 8.36816 10.2654 7.99998 10.2654C7.6318 10.2654 7.33331 9.9843 7.33331 9.6375V7.9631C7.33331 7.6163 7.6318 7.33518 7.99998 7.33518Z" fill="#DA0404"/>
    <path d="M4.04193 2.80031C2.21235 2.80271 1.25866 2.83892 0.650871 3.38592C-5.29819e-08 3.97171 0 4.91452 0 6.80015V10.8002C0 12.6858 -5.29819e-08 13.6286 0.650871 14.2144C1.25866 14.7614 2.21235 14.7976 4.04193 14.8C3.99987 14.3014 3.99993 13.7249 4.00001 13.1018V4.49847C3.99993 3.87541 3.99987 3.29895 4.04193 2.80031Z" fill="#DA0404"/>
</svg>