<svg width="32" height="32" viewBox="0 0 16 17" fill="none" xmlns="http://www.w3.org/2000/svg">
    <path fill-rule="evenodd" clip-rule="evenodd" d="M8.57077 0.000274658C9.32648 0.000274658 9.97579 0.520623 10.118 1.24025L10.1812 1.56025C10.4297 2.81805 11.7716 3.56918 13.0194 3.14894L13.337 3.04198C14.0508 2.80156 14.8403 3.08653 15.2181 3.72105L15.7889 4.67946C16.1668 5.31401 16.0266 6.11932 15.4548 6.59849L15.2006 6.8116C14.2012 7.64916 14.2012 9.15142 15.2006 9.98895L15.4548 10.202C16.0266 10.6812 16.1668 11.4865 15.7889 12.1211L15.2182 13.0795C14.8403 13.714 14.0508 13.999 13.3369 13.7585L13.0194 13.6516C11.7716 13.2313 10.4297 13.9824 10.1812 15.2403L10.118 15.5603C9.97579 16.2799 9.32648 16.8003 8.57077 16.8003H7.42924C6.67353 16.8003 6.02423 16.2799 5.88205 15.5604L5.81878 15.2401C5.57025 13.9824 4.22833 13.2313 2.98052 13.6516L2.66312 13.7585C1.94921 13.999 1.15975 13.714 0.781855 13.0794L0.211127 12.1211C-0.16675 11.4865 -0.0265849 10.6812 0.545135 10.202L0.799433 9.98895C1.79872 9.15135 1.79872 7.64916 0.799433 6.81164L0.545135 6.5985C-0.0265849 6.11932 -0.166749 5.31402 0.211127 4.67949L0.781876 3.72107C1.15975 3.08654 1.94919 2.80157 2.6631 3.04201L2.98059 3.14894C4.22837 3.56918 5.57025 2.8181 5.81878 1.56033L5.88204 1.24019C6.02423 0.520594 6.67346 0.000274658 7.42924 0.000274658H8.57077ZM8 10.8003C9.32546 10.8003 10.4 9.72575 10.4 8.40029C10.4 7.07476 9.32546 6.00028 8 6.00028C6.67448 6.00028 5.59998 7.07476 5.59998 8.40029C5.59998 9.72575 6.67448 10.8003 8 10.8003Z" fill="black"/>
</svg>