<svg width="48" height="49" viewBox="0 0 48 49" fill="none" xmlns="http://www.w3.org/2000/svg">
    <rect y="0.5" width="48" height="48" rx="5" fill="#FF8800"/>
    <path fill-rule="evenodd" clip-rule="evenodd" d="M41.3066 23.2255C39.7955 21.4625 38.3201 19.668 36.7777 17.9329C33.7933 14.5753 30.4824 11.6173 25.9489 10.6082C20.1578 9.31915 14.567 10.1617 9.20073 12.6194C8.13069 13.1094 7.10311 13.6791 6 14.5972C6.5461 14.5972 6.84402 14.6038 7.14134 14.5963C9.84694 14.5265 11.8745 15.7288 13.3368 17.942C14.4011 19.5527 14.9026 21.3742 15.2848 23.2482C15.8522 26.0294 15.5585 28.8648 15.8862 31.6587C16.5662 33.9963 19.5307 38.7322 25.9489 38.9749C32.3671 39.2176 37.1067 36.7501 38.6742 35.486C40.1911 34.7275 43.4126 26.7661 41.3066 23.2255ZM15.0588 13.2046C15.9484 14.1048 16.8115 14.5407 17.8915 14.2683C18.6983 14.065 19.251 13.5584 19.369 12.6212C17.9255 12.6779 16.5821 12.8251 15.0588 13.2046Z" fill="white"/>
</svg>