<svg width="32" height="32" viewBox="0 0 16 16" fill="none" xmlns="http://www.w3.org/2000/svg">
    <path d="M7.43326 11.4668C7.6666 11.4668 7.89995 11.5002 8.09996 11.5668L4.49976 1.36624L4.1664 0.366185C4.0664 0.0661681 3.76638 -0.0671729 3.4997 0.0328328L0.366185 1.06623C0.0661681 1.16623 -0.0671729 1.46625 0.0328328 1.73293L0.366185 2.73299C0.466191 3.033 0.766208 3.16635 1.03289 3.06634L2.66632 2.53298L5.96651 11.9002C6.39986 11.6335 6.89989 11.4668 7.43326 11.4668Z" fill="black"/>
    <path d="M13.0668 9.03316L9.76671 10.1998C9.43338 10.3332 9.03337 10.1332 8.93337 9.79984L7.76668 6.49978C7.63334 6.16644 7.83335 5.76643 8.16669 5.66643L11.4667 4.49974C11.8001 4.36641 12.2001 4.56641 12.3001 4.89975L13.4668 8.19981C13.6001 8.53315 13.4001 8.89982 13.0668 9.03316Z" fill="black"/>
    <path d="M9.93321 3.59956L7.69984 4.36624C7.3665 4.49957 6.96649 4.29957 6.86649 3.96623L6.09981 1.73286C5.96647 1.39952 6.16648 0.999512 6.49982 0.89951L8.73319 0.132829C9.06653 -0.000506371 9.46654 0.199497 9.56654 0.532836L10.3332 2.76621C10.4666 3.06622 10.2999 3.46622 9.93321 3.59956Z" fill="black"/>
    <path d="M15.9668 11.1334L15.6335 10.1334C15.5335 9.83341 15.2335 9.70007 14.9668 9.80007L8.90002 11.9001C9.53337 12.3001 9.96671 12.9668 10.1 13.7335L15.6668 11.8334C15.9335 11.7334 16.0668 11.4334 15.9668 11.1334Z" fill="black"/>
    <path d="M7.43316 12.3335C6.43314 12.3335 5.59979 13.1669 5.59979 14.1669C5.59979 15.1669 6.43314 16.0003 7.43316 16.0003C8.43318 16.0003 9.26652 15.1669 9.26652 14.1669C9.26652 13.1335 8.43318 12.3335 7.43316 12.3335Z" fill="black"/>
</svg>