<svg width="32" height="32" viewBox="0 0 16 16" fill="none" xmlns="http://www.w3.org/2000/svg">
    <path fill-rule="evenodd" clip-rule="evenodd" d="M16 8C16 12.4182 12.4182 16 8 16C3.58172 16 0 12.4182 0 8C0 3.58172 3.58172 0 8 0C12.4182 0 16 3.58172 16 8ZM10.4 5.6C10.4 6.92552 9.32552 8 8 8C6.67448 8 5.6 6.92552 5.6 5.6C5.6 4.27452 6.67448 3.2 8 3.2C9.32552 3.2 10.4 4.27452 10.4 5.6ZM8 14.8C9.4272 14.8 10.7518 14.3603 11.8455 13.609C12.3286 13.2771 12.535 12.645 12.2542 12.1306C11.672 11.0642 10.4722 10.4 7.99992 10.4C5.52775 10.4 4.32798 11.0642 3.74571 12.1306C3.46484 12.645 3.67128 13.277 4.15437 13.6089C5.24814 14.3602 6.57272 14.8 8 14.8Z" fill="black"/>
</svg>