<svg width="25" height="24" viewBox="0 0 20 21" fill="none" xmlns="http://www.w3.org/2000/svg">
    <path d="M1 18.1833C1 18.5501 1.14399 18.8676 1.43197 19.1356C1.71995 19.4037 2.07993 19.5306 2.5119 19.5165H17.5109C17.9109 19.5165 18.2628 19.3895 18.5668 19.1356C18.8708 18.8817 19.0148 18.5642 18.9988 18.1833C18.9988 17.5485 18.8308 16.9066 18.4948 16.2576C18.1589 15.6087 17.7189 15.0302 17.1749 14.5224C16.631 14.0145 16.007 13.5419 15.303 13.1045C14.5991 12.6672 13.8791 12.3356 13.1432 12.1099C14.0231 11.6302 14.7191 10.9883 15.2311 10.1842C15.743 9.38005 15.999 8.51947 15.999 7.60246V6.29043C15.999 4.82322 15.415 3.57468 14.2471 2.54481C13.0792 1.51494 11.6633 1 9.9994 1C8.33551 1 6.91961 1.51494 5.75168 2.54481C4.58376 3.57468 3.9998 4.82322 3.9998 6.29043V7.60246C3.9998 8.53358 4.25578 9.39416 4.76775 10.1842C5.27971 10.9742 5.97567 11.6161 6.85561 12.1099C6.10366 12.3497 5.38371 12.6813 4.69575 13.1045C4.0078 13.5277 3.38384 14.0004 2.82388 14.5224C2.26392 15.0443 1.82394 15.6228 1.50397 16.2576C1.18399 16.8925 1.016 17.5344 1 18.1833Z" fill="white" stroke="white"/>
</svg>