<svg width="17" height="17" viewBox="0 0 17 17" fill="none" xmlns="http://www.w3.org/2000/svg">
    <path d="M6.5376 1.8162L7.1866 2.97913C7.7723 4.02861 7.5372 5.40535 6.6147 6.32783C6.6147 6.32783 5.49588 7.44683 7.5245 9.47553C9.5525 11.5035 10.6722 10.3853 10.6722 10.3853C11.5947 9.46283 12.9714 9.22773 14.0209 9.81343L15.1838 10.4624C16.7686 11.3468 16.9557 13.5692 15.5628 14.9622C14.7258 15.7992 13.7004 16.4505 12.5669 16.4934C10.6588 16.5658 7.4183 16.0829 4.1677 12.8323C0.917132 9.58173 0.434212 6.34125 0.506552 4.43312C0.549522 3.29963 1.2008 2.27426 2.03781 1.43726C3.43076 0.0443107 5.65317 0.231471 6.5376 1.8162Z" fill="black"/>
</svg>