<svg width="24" height="24" viewBox="0 0 24 24" fill="none" xmlns="http://www.w3.org/2000/svg">
    <path d="M6 7.92398C6 7.60101 6.23025 7.33919 6.51429 7.33919L8.29045 7.33888C8.64335 7.32871 8.95468 7.07355 9.07476 6.69608C9.07792 6.68615 9.08155 6.67391 9.09457 6.62949L9.1711 6.36837C9.21793 6.20827 9.25873 6.06879 9.31583 5.94411C9.54139 5.45157 9.95872 5.10955 10.441 5.02198C10.563 4.99981 10.6923 4.99991 10.8407 5.00001H13.1594C13.3078 4.99991 13.4371 4.99981 13.5591 5.02198C14.0414 5.10955 14.4587 5.45157 14.6843 5.94411C14.7414 6.06879 14.7822 6.20827 14.829 6.36837L14.9055 6.62949C14.9185 6.67391 14.9222 6.68615 14.9253 6.69608C15.0455 7.07355 15.4185 7.32902 15.7714 7.33919H17.4857C17.7697 7.33919 18 7.60101 18 7.92398C18 8.24695 17.7697 8.50877 17.4857 8.50877H6.51429C6.23025 8.50877 6 8.24695 6 7.92398Z" fill="white"/>
    <path fill-rule="evenodd" clip-rule="evenodd" d="M11.7304 18.3334H12.2696C14.1247 18.3334 15.0523 18.3334 15.6554 17.7428C16.2585 17.1522 16.3202 16.1834 16.4436 14.2457L16.6214 11.4538C16.6884 10.4024 16.7218 9.87678 16.4192 9.54368C16.1167 9.21057 15.6058 9.21057 14.584 9.21057H9.41601C8.39416 9.21057 7.88323 9.21057 7.58068 9.54368C7.27813 9.87678 7.31161 10.4024 7.37857 11.4538L7.55637 14.2457C7.67978 16.1834 7.74148 17.1522 8.34457 17.7428C8.94767 18.3334 9.87524 18.3334 11.7304 18.3334ZM10.8308 11.7924C10.8034 11.5032 10.5583 11.2921 10.2836 11.321C10.0088 11.35 9.80832 11.6079 9.83579 11.8971L10.1691 15.4059C10.1966 15.6951 10.4416 15.9062 10.7164 15.8772C10.9912 15.8483 11.1916 15.5904 11.1642 15.3012L10.8308 11.7924ZM13.7164 11.321C13.9912 11.35 14.1916 11.6079 14.1642 11.8971L13.8308 15.4059C13.8034 15.6951 13.5583 15.9062 13.2836 15.8772C13.0088 15.8483 12.8083 15.5904 12.8358 15.3012L13.1691 11.7924C13.1966 11.5032 13.4416 11.2921 13.7164 11.321Z" fill="white"/>
</svg>