<svg width="16" height="27" viewBox="0 0 16 27" fill="black" xmlns="http://www.w3.org/2000/svg">
    <path d="M6.02356 4.67784H6.42457V6.28187H5.62255C5.14134 6.28187 4.82054 6.60268 4.82054 7.08389V7.8859H11.2367V7.08389C11.2367 6.60268 10.9159 6.28187 10.4346 6.28187H9.63263V4.67784C10.595 4.75805 11.5575 5.07885 12.4397 5.64026L13.2417 6.12147C13.3219 6.20167 13.4823 6.28187 13.6427 6.28187C13.8031 6.28187 13.8833 6.28187 13.9635 6.20167L15.5675 5.39966C15.8081 5.31946 15.9685 5.07885 15.9685 4.83825C16.0487 4.59764 15.9685 4.35704 15.8081 4.19664L15.3269 3.55502C14.0437 1.79059 11.8783 0.66777 9.63263 0.66777H6.02356C4.90074 0.66777 4.01852 1.54999 4.01852 2.67281C4.01852 3.79563 4.90074 4.67784 6.02356 4.67784Z" />
    <path d="M13.4021 10.693C13.2417 9.97115 12.6001 9.48994 11.8783 9.48994H11.2366H4.82053H4.25912C3.53731 9.48994 2.8957 9.97115 2.73529 10.693L0.168846 19.9161C-0.232161 21.44 0.0886452 23.044 1.05106 24.3272C2.01348 25.6104 3.45711 26.3323 5.06114 26.3323H10.9158C12.5199 26.3323 13.9635 25.6104 14.9259 24.3272C15.8883 23.044 16.2091 21.44 15.8081 19.9161L13.4021 10.693ZM8.02859 21.5202C6.26416 21.5202 4.82053 20.0765 4.82053 18.3923C4.82053 16.3873 7.22658 13.9812 7.46718 13.7406C7.78799 13.4198 8.26919 13.4198 8.59 13.7406C8.83061 13.9812 11.2366 16.3873 11.2366 18.3923C11.2366 20.0765 9.79302 21.5202 8.02859 21.5202Z" />
</svg>