<svg width="16" height="23" viewBox="0 0 16 23" fill="black" xmlns="http://www.w3.org/2000/svg">
    <path d="M3.21381 12.4278C5.58593 14.7999 6.88677 18.0138 6.88677 21.3807V21.7633C6.88677 22.3754 7.49893 22.758 8.03457 22.4519C8.26413 22.3754 8.49369 22.3754 8.72325 22.4519L9.56497 22.8345C9.79453 22.9111 10.0241 22.9111 10.2536 22.8345L11.0954 22.4519C11.3249 22.3754 11.5545 22.3754 11.784 22.4519L12.6258 22.8345C12.8553 22.9111 13.0849 22.9111 13.3144 22.8345L14.1562 22.4519C14.3857 22.3754 14.6153 22.3754 14.8448 22.4519C15.3805 22.758 15.9927 22.2989 15.9927 21.7633V12.7339V10.8209V5.84709C16.0692 5.23493 15.5335 4.69929 14.9214 4.69929C14.3092 4.69929 13.7736 5.23493 13.7736 5.84709V5.08189C13.7736 4.46972 13.2379 3.93408 12.6258 3.93408C12.0136 3.93408 11.478 4.46972 11.478 5.08189V4.31668C11.478 3.70452 10.9423 3.16888 10.3302 3.16888C9.71801 3.16888 9.18237 3.70452 9.18237 4.31668V5.08189C9.18237 4.46972 8.64673 3.93408 8.03457 3.93408C7.42241 3.93408 6.88677 4.46972 6.88677 5.08189V10.8209V12.6574L4.97377 10.7444C4.51465 10.2852 3.82597 10.2087 3.36685 10.5913C2.67816 11.0504 2.67816 11.8922 3.21381 12.4278Z" />
    <path d="M5.3564 19.6207C5.3564 17.7842 4.66772 16.0243 3.36688 14.7234L2.14256 13.4991C1.5304 12.8869 1.30084 12.1217 1.37736 11.3565C1.45388 10.5148 1.83648 9.82613 2.52516 9.36701C3.36688 8.75484 4.51468 8.67832 5.43292 9.21396V5.31144C5.43292 3.78104 6.65725 2.4802 8.18765 2.4802C8.34069 2.4802 8.41721 2.4802 8.57025 2.4802C8.79981 2.25064 9.02937 2.0976 9.33545 1.94456C9.10589 1.3324 8.64677 0.873279 8.03461 0.873279C7.42245 0.873279 6.88681 1.40892 6.88681 2.02108V1.25588C6.88681 0.643718 6.35116 0.108078 5.739 0.108078C5.12684 0.108078 4.5912 0.643718 4.5912 1.25588V2.02108C4.5912 1.40892 4.05556 0.873279 3.4434 0.873279C2.83124 0.873279 2.2956 1.40892 2.2956 2.02108V2.78628C2.2956 2.17412 1.75996 1.63848 1.1478 1.63848C0.53564 1.63848 0 2.17412 0 2.78628V7.76008V9.67309V18.7025C0 19.3146 0.61216 19.6972 1.1478 19.4677C1.37736 19.3911 1.60692 19.3146 1.83648 19.4677L2.6782 19.9268C2.90776 20.0033 3.13732 20.0033 3.36688 19.9268L4.2086 19.5442C4.43816 19.4677 4.66772 19.4677 4.89728 19.5442L5.3564 19.6207Z" />
</svg>