<svg width="18" height="19" viewBox="0 0 18 19" fill="black" xmlns="http://www.w3.org/2000/svg">
    <path d="M11.4 10.0625H0.6C0.24 10.0625 0 10.2875 0 10.625V17.9375C0 18.275 0.24 18.5 0.6 18.5H11.4V10.0625Z" />
    <path d="M17.4 10.0625H12.6V18.5H17.4C17.76 18.5 18 18.275 18 17.9375V10.625C18 10.2875 17.76 10.0625 17.4 10.0625Z" />
    <path d="M5.28004 8.9375H9.60004V6.6875C9.60004 6.35 9.84004 6.125 10.2 6.125C10.56 6.125 10.8 6.35 10.8 6.6875V8.9375H13.56L15.6 6.125C16.08 5.45 16.08 4.55 15.48 3.93125C14.88 3.25625 13.92 3.0875 13.08 3.48125C12.9 3.59375 12.66 3.59375 12.42 3.48125C12.24 3.425 12.06 3.25625 12 3.0875L11.4 1.625C11.1 0.95 10.38 0.5 9.60004 0.5C8.76004 0.5 8.10004 0.89375 7.74004 1.56875L7.32004 2.46875C7.20004 2.6375 7.08004 2.80625 6.84004 2.8625C6.60004 2.91875 6.36004 2.91875 6.18004 2.80625L5.76004 2.58125C4.98004 2.13125 4.02004 2.24375 3.36004 2.8625C2.70004 3.425 2.58004 4.26875 3.00004 5L5.28004 8.9375Z"/>
</svg>