<svg width="17" height="27" viewBox="0 0 17 27" fill="black" xmlns="http://www.w3.org/2000/svg">
    <path d="M9.96 7.30472H6.17C6.17 7.30472 0 12.1357 0 19.4127C0 26.6897 6.486 26.7597 6.486 26.7597C6.486 26.7597 8.174 26.8847 9.611 26.7597C9.611 26.8217 16.136 25.8947 16.136 19.4067C16.137 12.9207 9.96 7.30472 9.96 7.30472ZM6.17 6.82972H9.967V5.40572H6.17V6.82972ZM9.909 4.93172L11.837 0.184723C11.837 0.184723 10.62 1.19372 9.909 1.19372C9.196 1.19372 8.069 0.214723 8.069 0.214723C8.069 0.214723 6.853 1.19372 6.141 1.19372C5.429 1.19372 4.272 0.244723 4.272 0.244723L6.23 4.93272L9.909 4.93172Z"/>
</svg>