<svg width="18" height="19" viewBox="0 0 18 19" fill="black" xmlns="http://www.w3.org/2000/svg">
    <path d="M5.0625 0.5C2.19375 0.5 0 1.85 0 3.71429C0 5.57857 2.19375 6.92857 5.0625 6.92857C7.93125 6.92857 10.125 5.57857 10.125 3.71429C10.125 1.85 7.93125 0.5 5.0625 0.5ZM5.625 4.35714H4.5C4.1625 4.35714 3.9375 4.1 3.9375 3.71429C3.9375 3.32857 4.1625 3.07143 4.5 3.07143H5.625C5.9625 3.07143 6.1875 3.32857 6.1875 3.71429C6.1875 4.1 5.9625 4.35714 5.625 4.35714Z"/>
    <path d="M5.0625 8.21428C2.86875 8.21428 1.06875 7.50714 0 6.41428V14C0 15.8643 2.19375 17.2143 5.0625 17.2143C7.93125 17.2143 10.125 15.8643 10.125 14V6.41428C9.05625 7.50714 7.25625 8.21428 5.0625 8.21428Z" />
    <path d="M17.4375 4.35714H13.7813C13.6125 4.35714 13.5 4.22857 13.5 4.03571C13.5 3.84286 13.6125 3.71429 13.7813 3.71429H14.9063C15.6938 3.71429 16.3125 3.00714 16.3125 2.10714C16.3125 1.20714 15.6938 0.5 14.9063 0.5H9.50626C10.6313 1.27143 11.25 2.42857 11.25 3.71429V14C11.25 14.1929 11.25 14.45 11.1938 14.6429H12.375V16.5714V16.8929C12.375 17.7929 12.9938 18.5 13.7813 18.5H17.4375C17.775 18.5 18 18.2429 18 17.8571V5C18 4.61429 17.775 4.35714 17.4375 4.35714Z" />
</svg>