<svg width="18" height="19" viewBox="0 0 18 19" fill="black" xmlns="http://www.w3.org/2000/svg">
    <path d="M14.1429 0.5H5.14286C3.47143 0.5 2.05714 2.04286 1.47857 4.35714H1.28571C0.514286 4.35714 0 5.19286 0 6.28571C0 7.37857 0.514286 8.21429 1.28571 8.21429H1.47857C1.99286 10.5286 3.47143 12.0714 5.14286 12.0714C6.17143 12.0714 7.00714 11.5571 7.71429 10.5929V17.8571C7.71429 18.2429 7.97143 18.5 8.35714 18.5H17.3571C17.7429 18.5 18 18.2429 18 17.8571V6.28571C18 3.07143 16.3286 0.5 14.1429 0.5ZM5.14286 10.7857C4.17857 10.7857 3.27857 9.75714 2.82857 8.21429H4.5C5.27143 8.21429 5.78571 7.37857 5.78571 6.28571C5.78571 5.19286 5.27143 4.35714 4.5 4.35714H2.82857C3.27857 2.81429 4.17857 1.78571 5.14286 1.78571C6.55714 1.78571 7.71429 3.84286 7.71429 6.28571C7.71429 8.72857 6.55714 10.7857 5.14286 10.7857Z"/>
</svg>