<svg width="22" height="17" viewBox="0 0 22 17" fill="black" xmlns="http://www.w3.org/2000/svg">
    <path d="M20.6293 8.0426L21.6331 0.861234C21.7104 0.475139 21.4015 0.0118256 20.9382 0.0118256C20.4748 -0.0653934 20.0888 0.243482 20.0888 0.706796L19.2393 6.88431C18.3899 6.72987 17.5405 6.96153 16.9228 7.57928C16.4595 7.96538 15.7645 7.96538 15.3784 7.57928C14.3745 6.57544 12.6757 6.57544 11.6719 7.57928C11.2086 7.96538 10.5136 7.96538 10.1275 7.57928C9.12366 6.57544 7.42484 6.57544 6.421 7.57928C5.95768 7.96538 5.26271 7.96538 4.87662 7.57928C4.25887 6.96153 3.40946 6.72987 2.56005 6.88431L1.5562 0.706796C1.47899 0.243482 1.09289 -0.0653934 0.706796 0.0118256C0.243482 0.0890445 -0.0653934 0.475139 0.0118256 0.861234L1.9423 14.9923C2.17396 16.1506 3.10058 17 4.25887 17H17.3089C18.4672 17 19.471 16.1506 19.6254 14.9923L20.6293 8.0426C20.6293 8.11981 20.6293 8.11981 20.6293 8.0426Z" />
</svg>