<svg width="23" height="17" viewBox="0 0 23 17" fill="black" xmlns="http://www.w3.org/2000/svg">
    <path d="M22.1389 2.28447C21.297 0.447528 19.2304 -0.394402 17.3935 0.217911L15.2504 0.983302C12.8777 1.82523 10.1988 1.82523 7.74958 0.983302L5.60649 0.217911C3.76955 -0.394402 1.77953 0.524067 0.861065 2.28447C-0.287022 4.73372 -0.287022 7.56567 0.861065 10.0149C1.54992 11.4692 2.92762 12.3111 4.38186 12.3111C4.76456 12.3111 5.22379 12.2346 5.60649 12.0815L7.74958 11.3161C10.1223 10.4742 12.8012 10.4742 15.2504 11.3161L17.3935 12.0815C19.2304 12.6938 21.297 11.8519 22.1389 10.0149C23.287 7.56567 23.287 4.81026 22.1389 2.28447ZM14.5616 3.89179H16.0923C16.5516 3.89179 16.8577 4.19794 16.8577 4.65718C16.8577 5.11641 16.5516 5.42257 16.0923 5.42257H14.5616C14.1023 5.42257 13.7962 5.11641 13.7962 4.65718C13.7962 4.19794 14.1023 3.89179 14.5616 3.89179ZM5.37687 6.95335H3.84609C3.38686 6.95335 3.0807 6.6472 3.0807 6.18796C3.0807 5.72873 3.38686 5.42257 3.84609 5.42257H5.37687C5.83611 5.42257 6.14226 5.72873 6.14226 6.18796C6.14226 6.6472 5.83611 6.95335 5.37687 6.95335ZM8.43844 8.48413H6.90765C6.44842 8.48413 6.14226 8.17798 6.14226 7.71874C6.14226 7.25951 6.44842 6.95335 6.90765 6.95335H8.43844C8.89767 6.95335 9.20383 7.25951 9.20383 7.71874C9.20383 8.17798 8.89767 8.48413 8.43844 8.48413ZM8.43844 5.42257H6.90765C6.44842 5.42257 6.14226 5.11641 6.14226 4.65718C6.14226 4.19794 6.44842 3.89179 6.90765 3.89179H8.43844C8.89767 3.89179 9.20383 4.19794 9.20383 4.65718C9.20383 5.11641 8.89767 5.42257 8.43844 5.42257ZM12.2654 6.95335H10.7346C10.2754 6.95335 9.96922 6.6472 9.96922 6.18796C9.96922 5.72873 10.2754 5.42257 10.7346 5.42257H12.2654C12.7246 5.42257 13.0308 5.72873 13.0308 6.18796C13.0308 6.6472 12.7246 6.95335 12.2654 6.95335ZM16.0923 8.48413H14.5616C14.1023 8.48413 13.7962 8.17798 13.7962 7.71874C13.7962 7.25951 14.1023 6.95335 14.5616 6.95335H16.0923C16.5516 6.95335 16.8577 7.25951 16.8577 7.71874C16.8577 8.17798 16.5516 8.48413 16.0923 8.48413ZM19.1539 6.95335H17.6231C17.1639 6.95335 16.8577 6.6472 16.8577 6.18796C16.8577 5.72873 17.1639 5.42257 17.6231 5.42257H19.1539C19.6131 5.42257 19.9193 5.72873 19.9193 6.18796C19.9193 6.6472 19.6131 6.95335 19.1539 6.95335Z"/>
    <path d="M18.6182 13.8419C18.0059 13.8419 17.4701 13.7653 16.8578 13.5357L14.7147 12.7703C12.6481 12.0049 10.3519 12.0049 8.28539 12.7703L6.14229 13.5357C5.60652 13.7653 4.99421 13.8419 4.38189 13.8419C2.69803 13.8419 1.09071 13 0.019165 11.6223C0.0957041 12.6938 0.40186 13.6888 0.861095 14.6838C1.54995 16.1381 2.92765 16.98 4.38189 16.98C4.76459 16.98 5.22382 16.9035 5.60652 16.7504L7.74961 15.985C10.1223 15.1431 12.8012 15.1431 15.2504 15.985L17.3935 16.7504C19.2305 17.3627 21.297 16.5208 22.139 14.6838C22.5982 13.7653 22.8278 12.6938 22.9809 11.6988C21.9093 13.0765 20.302 13.8419 18.6182 13.8419Z"/>
</svg>